<?xml version="1.0" encoding="utf-8"?>
<!-- Generator: Adobe Illustrator 21.1.0, SVG Export Plug-In . SVG Version: 6.00 Build 0)  -->
<svg version="1.1" id="Layer_1" xmlns="http://www.w3.org/2000/svg" xmlns:xlink="http://www.w3.org/1999/xlink" x="0px" y="0px"
	 viewBox="0 0 4248 1990" style="enable-background:new 0 0 4248 1990;" xml:space="preserve">
<style type="text/css">
	.st0{fill:#FFFFFF;}
	.st1{display:none;fill:none;stroke:#000000;stroke-width:65;stroke-miterlimit:10;}
</style>
<g>
	<path class="st0" d="M3595.7,1232c0,30.9-25.1,56-56,56c-30.9,0-56-25-56-56s25.1-56,56-56C3570.7,1176,3595.7,1201.1,3595.7,1232"
		/>
	<path class="st0" d="M128.3,1021.2v261.7H-0.2v-575h194.9c20,0,37.1,2.7,51.3,8.1c14.2,5.4,25.4,12.5,33.6,21.3
		c8.2,8.8,14.6,20.5,19.3,35c4.7,14.6,7.8,29.1,9.2,43.7c1.5,14.6,2.2,32.2,2.2,52.9c0,10.8-0.2,19.7-0.5,26.5
		c-0.4,6.9-1.7,15.5-4,26c-2.3,10.5-5.5,19.2-9.6,26.2c-4.1,7-10.3,13.8-18.6,20.6c-8.3,6.7-18.3,11.9-30.1,15.5
		c11.8,2.2,21.5,6.2,29.2,12.1c7.7,5.9,13.2,13.2,16.6,21.8c3.4,8.7,5.7,16.7,6.9,24c1.2,7.4,1.8,15.6,1.8,24.7
		c0,95-0.5,167.2-1.4,216.6H176.3v-224.2c0-8.9-0.9-16-2.7-21.3c-1.8-5.3-5.2-9.1-10.1-11.4c-4.9-2.3-9.7-3.7-14.3-4.2
		C144.6,1021.4,137.7,1021.2,128.3,1021.2 M129,814.3v107.2h31.8c16.8,0,25.3-17.6,25.3-52.7c0-23.3-3.3-38.2-9.9-44.8
		c-6.6-6.5-20-9.7-40.2-9.7H129z"/>
	<path class="st0" d="M608.9,707.8l63.5,575H549.7l-9-86.6h-64.3l-7.9,86.6H345.1l65-575H608.9z M514,815.8h-11.5l-17,275.8H531
		L514,815.8z"/>
	<path class="st0" d="M716.5,1282.8v-575h175.1c47.4,0,82,12.1,103.8,36.3c21.8,24.2,33.8,57.3,34,99.5l0.5,268.5
		c0,57.5-11.3,100.3-33.7,128.5c-22.5,28.2-58.8,42.2-108.8,42.2H716.5z M844.2,809.6v368.2c0.7-0.2,2.2-0.4,4.3-0.4
		c1.4,0,4.2,0.1,8.1,0.4c4,0.3,7.2,0.3,9.6,0.3c24.3,0,36.5-10.2,36.5-30.7V863.8c0-20.9-3.3-35.3-9.9-43.1
		c-6.6-7.8-18.1-11.7-34.5-11.7C855.7,808.9,851,809.2,844.2,809.6"/>
	<rect x="1072.6" y="707.8" class="st0" width="122.7" height="575"/>
	<path class="st0" d="M1238.6,1127.6v-274c0-47.9,12.9-85,38.8-111.3c25.9-26.3,64.8-39.9,116.8-40.6c53.4,0.7,93.1,14.3,118.9,40.6
		c25.9,26.4,38.8,63.5,38.8,111.3v274c0,23.3-3,44.6-8.8,63.7c-5.9,19.1-14.9,36.1-26.9,51.1c-12,14.9-28.3,26.5-48.9,34.7
		c-20.5,8.2-44.2,11.9-70.9,11.2c-28.2,0.7-52.5-3-73.1-11.2c-20.6-8.2-36.9-19.7-48.9-34.7c-12.1-14.9-21-32-26.9-51.1
		C1241.5,1172.2,1238.6,1151,1238.6,1127.6 M1395.2,1175.6c4.6,0,8.6-0.9,12.1-2.7c3.5-1.8,6.2-4.6,8.3-8.3c2-3.7,3.7-7.3,4.9-10.6
		c1.2-3.4,2-7.9,2.5-13.5c0.5-5.6,0.8-10,0.9-13c0.1-3,0.2-7.2,0.2-12.5v-2.9v-231c0-1.4,0.1-4.3,0.2-8.6c0.1-4.3,0.1-7.6,0-9.8
		c-0.1-2.2-0.2-5.3-0.4-9.6c-0.1-4.2-0.5-7.5-1.1-9.8c-0.6-2.3-1.3-5.2-2.2-8.6c-0.8-3.5-2-6.1-3.4-7.9c-1.5-1.8-3.1-3.7-5.1-5.8
		c-1.9-2-4.3-3.5-7.2-4.3c-2.9-0.8-6.1-1.3-9.7-1.3c-5.1,0-9.4,0.8-13.2,2.5c-3.7,1.7-6.7,4.4-8.8,8.1c-2.2,3.7-4,7.1-5.4,10.1
		c-1.4,3-2.4,7.5-2.9,13.4c-0.5,5.9-0.7,10.1-0.7,12.6V875v2.5v2.2v231c0,5.3,0.1,9.5,0.2,12.6c0.1,3.1,0.4,7.7,0.9,13.7
		c0.5,6,1.4,10.9,2.7,14.6c1.3,3.7,3.1,7.6,5.2,11.7c2.2,4.1,5.1,7.2,8.8,9.2C1385.8,1174.6,1390.2,1175.6,1395.2,1175.6"/>
	<polygon class="st0" points="3640.1,1282.8 3640.1,707.8 3894.2,707.8 3894.2,820.1 3767.9,820.1 3767.9,911.1 3887.7,911.1 
		3887.7,1021.9 3767.9,1021.9 3767.9,1282.8 	"/>
	<path class="st0" d="M4066,1021.2v261.7h-128.5v-575h194.9c20,0,37.1,2.7,51.3,8.1c14.2,5.4,25.4,12.5,33.6,21.3
		c8.2,8.8,14.6,20.5,19.3,35c4.7,14.6,7.8,29.1,9.2,43.7c1.5,14.6,2.2,32.2,2.2,52.9c0,10.8-0.2,19.7-0.5,26.5
		c-0.4,6.9-1.7,15.5-4,26c-2.3,10.5-5.5,19.2-9.6,26.2c-4.1,7-10.3,13.8-18.6,20.6c-8.3,6.7-18.4,11.9-30.1,15.5
		c11.8,2.2,21.5,6.2,29.2,12.1c7.7,5.9,13.2,13.2,16.6,21.8c3.4,8.7,5.7,16.7,6.9,24c1.2,7.4,1.8,15.6,1.8,24.7
		c0,95-0.5,167.2-1.4,216.6H4114v-224.2c0-8.9-0.9-16-2.7-21.3c-1.8-5.3-5.2-9.1-10.1-11.4c-4.9-2.3-9.7-3.7-14.3-4.2
		C4082.4,1021.4,4075.4,1021.2,4066,1021.2 M4066.7,814.3v107.2h31.8c16.8,0,25.3-17.6,25.3-52.7c0-23.3-3.3-38.2-9.9-44.8
		c-6.6-6.5-20-9.7-40.2-9.7H4066.7z"/>
</g>
<circle class="st1" cx="2461.2" cy="994.7" r="972.4"/>
<g id="Layer_2">
	<path class="st0" d="M1593.2,556c0,0,2.2-4.6,6.5-13.4c2.2-4.4,4.8-9.9,8-16.5c3.4-6.4,7.4-13.9,11.9-22.3
		c9.1-16.8,21-37.2,35.9-60.6c1.8-3,3.8-5.9,5.8-8.9c2-3,4.1-6,6.2-9.1c4.2-6.2,8.4-12.7,13.2-19c4.7-6.4,9.5-13.1,14.5-19.9
		c5.2-6.7,10.6-13.5,16.1-20.6c22.3-28,48.7-57.8,79.6-88.1c7.8-7.5,15.6-15.4,24.1-22.8c8.4-7.5,16.8-15.4,25.8-22.8
		c4.5-3.8,9-7.6,13.5-11.4c2.3-2,4.6-3.8,7-5.6c2.4-1.9,4.7-3.7,7.1-5.6c4.8-3.7,9.6-7.5,14.4-11.3c5-3.7,10-7.3,15.1-11
		c2.5-1.9,5.1-3.7,7.6-5.6c2.5-1.9,5.1-3.8,7.8-5.5c5.3-3.6,10.6-7.2,15.9-10.9c2.7-1.8,5.4-3.7,8.1-5.5c2.7-1.8,5.5-3.5,8.3-5.3
		c5.6-3.5,11.2-7.1,16.8-10.6c1.4-0.9,2.8-1.8,4.3-2.7c1.4-0.8,2.9-1.7,4.3-2.5c2.9-1.7,5.8-3.4,8.7-5.1c2.9-1.7,5.9-3.4,8.8-5.1
		c1.5-0.9,3-1.7,4.4-2.6l2.2-1.3l2.3-1.2c6.1-3.3,12.1-6.5,18.3-9.8c3.1-1.7,6.1-3.3,9.2-5c3.1-1.6,6.3-3.1,9.5-4.7
		c6.3-3.1,12.7-6.3,19.1-9.5c1.6-0.8,3.2-1.5,4.9-2.3c1.6-0.7,3.3-1.5,4.9-2.2c3.3-1.5,6.6-3,9.9-4.5c13.1-6.2,26.8-11.5,40.5-17.2
		c1.7-0.7,3.4-1.4,5.2-2.1c1.7-0.6,3.5-1.3,5.2-1.9c3.5-1.3,7-2.6,10.5-3.9c3.5-1.3,7.1-2.6,10.6-3.9c1.8-0.6,3.5-1.3,5.3-1.9
		c1.8-0.6,3.6-1.2,5.4-1.8c7.2-2.4,14.5-4.8,21.8-7.2c1.8-0.6,3.7-1.2,5.5-1.8c1.9-0.5,3.7-1.1,5.6-1.6c3.7-1.1,7.4-2.2,11.2-3.2
		c3.7-1.1,7.5-2.2,11.2-3.3c1.9-0.5,3.7-1.1,5.6-1.6c1.9-0.5,3.8-1,5.7-1.4c7.6-1.9,15.3-3.9,23-5.8c3.8-1,7.7-1.8,11.6-2.7
		c3.9-0.8,7.8-1.7,11.7-2.5c3.9-0.8,7.9-1.7,11.8-2.5l3-0.6l3-0.5c2-0.4,4-0.7,6-1.1c8-1.4,16-2.8,24-4.3c2-0.4,4-0.6,6.1-0.9
		c2-0.3,4.1-0.6,6.1-0.9c4.1-0.6,8.1-1.1,12.2-1.7c4.1-0.6,8.2-1.1,12.3-1.7c4.1-0.4,8.3-0.9,12.4-1.3c8.3-0.8,16.6-1.8,25-2.5
		c16.8-1.1,33.7-2.6,50.8-2.8c4.3-0.1,8.6-0.3,12.8-0.4c2.1-0.1,4.3-0.1,6.4-0.2c2.2,0,4.4,0,6.6,0c4.2,0,8.4,0,12.7,0
		c2.1,0,4.2,0,6.3,0c2.2,0.1,4.4,0.1,6.6,0.2c4.4,0.1,8.8,0.2,13.2,0.3c2.2,0.1,4.4,0.1,6.6,0.2c2.2,0.1,4.4,0.2,6.6,0.3
		c8.7,0.5,17.5,0.8,26.3,1.5c8.8,0.7,17.6,1.3,26.5,2.3c4.4,0.5,8.9,0.9,13.3,1.4c2.2,0.2,4.4,0.5,6.7,0.8c2.2,0.3,4.4,0.6,6.7,0.8
		c35.5,4.5,71.4,11,107.1,19.6c4.5,1,8.9,2.2,13.4,3.4c4.5,1.2,8.9,2.3,13.4,3.5c4.5,1.2,8.9,2.5,13.4,3.8c4.5,1.3,9,2.5,13.4,3.9
		c4.4,1.4,8.9,2.8,13.4,4.2c4.5,1.4,8.9,2.8,13.4,4.3c8.9,3.1,17.8,6,26.6,9.3c35.4,13,70.5,28,104.9,45.3
		c34.4,17.4,68.1,36.9,100.9,58.5c4.1,2.7,8.1,5.5,12.2,8.3l6.1,4.2c2,1.4,4.1,2.8,6.1,4.2c4,2.9,8,5.8,12,8.6c2,1.4,4,2.9,6,4.3
		l5.9,4.5c3.9,3,7.9,6,11.9,9c3.9,3.1,7.8,6.2,11.7,9.2c7.9,6.1,15.4,12.6,23.1,18.9c3.9,3.2,7.5,6.5,11.3,9.8
		c3.7,3.3,7.5,6.6,11.3,9.9c3.7,3.4,7.4,6.8,11.1,10.2l5.5,5.1l5.4,5.2c3.6,3.5,7.2,7,10.9,10.5c3.6,3.5,7.1,7.1,10.6,10.7
		c7.2,7.1,14,14.5,20.9,21.9l2.6,2.8l2.5,2.8l5.1,5.7c3.4,3.8,6.8,7.5,10.1,11.4c3.3,3.9,6.6,7.7,9.9,11.6c1.6,1.9,3.3,3.8,4.9,5.8
		l4.8,5.9c3.2,3.9,6.4,7.9,9.6,11.8c3.1,4,6.2,8.1,9.4,12.1l4.7,6.1c1.6,2,3,4.1,4.6,6.2c3,4.1,6.1,8.2,9.1,12.3
		c3,4.1,5.9,8.4,8.9,12.5c2.9,4.2,5.9,8.4,8.7,12.7c5.7,8.6,11.4,17.1,16.8,25.8c11.1,17.3,21.4,35.2,31.4,53.3
		c2.4,4.6,4.9,9.1,7.3,13.7l3.6,6.8c1.2,2.3,2.3,4.6,3.5,6.9c2.3,4.6,4.6,9.3,7,13.9c2.3,4.6,4.4,9.4,6.7,14.1
		c4.5,9.3,8.6,18.9,12.8,28.4l1.6,3.6l1.5,3.6l3,7.2l3,7.2c1,2.4,2,4.8,2.9,7.2c15.2,38.8,28.2,78.5,38.5,119.1
		c2.5,10.2,5.1,20.3,7.2,30.6c1.1,5.1,2.3,10.2,3.3,15.4l3,15.4l1.5,7.7l1.3,7.8l2.6,15.5c0.8,5.2,1.5,10.4,2.2,15.6
		c0.7,5.2,1.5,10.4,2.1,15.6c1.2,10.4,2.5,20.8,3.3,31.3c0.5,5.2,1,10.5,1.4,15.7l1,15.7l0.5,7.9c0.1,2.6,0.2,5.2,0.3,7.9l0.6,15.7
		c0.1,2.6,0.1,5.2,0.2,7.9l0.1,7.9l0.1,7.9l0.1,3.9c0,0.3,0,1.8,0,2.4l0,1.9l-0.2,15.2l-0.1,7.6l-0.3,8l-0.6,16
		c-0.2,5.3-0.6,10.5-1,15.8c-1.2,21-3.5,41.9-6,62.7c-5.4,41.6-13.4,82.9-23.8,123.4c-10.6,40.5-23.6,80.3-39.1,118.9
		c-2,4.8-4,9.6-5.9,14.4c-1,2.4-2,4.8-3,7.2l-3.1,7.1c-2.1,4.8-4.2,9.5-6.3,14.3c-2.2,4.7-4.4,9.4-6.6,14.1l-3.3,7
		c-1.1,2.3-2.3,4.6-3.5,7c-2.3,4.6-4.6,9.3-7,13.9c-2.4,4.6-4.8,9.2-7.3,13.7c-2.4,4.6-4.8,9.2-7.4,13.6
		c-40.1,72.3-88.8,138.9-144.2,198c-3.5,3.7-6.9,7.4-10.4,11c-3.5,3.6-7.1,7.2-10.6,10.8l-5.3,5.4c-1.8,1.8-3.6,3.5-5.4,5.3
		c-3.6,3.5-7.2,7-10.9,10.5c-1.8,1.8-3.7,3.4-5.5,5.1l-5.5,5.1l-5.5,5.1l-2.8,2.5l-2.8,2.5c-7.6,6.6-15,13.3-22.7,19.6
		c-30.6,25.6-62.4,49.3-95.3,70.7c-32.9,21.4-66.7,40.9-101.2,58c-4.3,2.1-8.7,4.2-13,6.3c-2.2,1-4.3,2.1-6.5,3.1l-6.5,3
		c-4.4,2-8.7,4-13.1,6c-4.4,2-8.8,3.8-13.1,5.7c-4.4,1.8-8.7,3.8-13.2,5.5c-4.4,1.8-8.8,3.5-13.2,5.3l-6.6,2.6l-6.7,2.5
		c-4.4,1.6-8.9,3.3-13.3,4.9c-35.5,12.9-71.3,23.3-107.2,31.7c-35.8,8.4-71.7,14.8-107.2,19.1c-35.6,4.3-70.9,6.7-105.6,7.1
		c-8.7,0.1-17.3,0-26,0c-0.2,0-1.6,0-2,0l-1.6,0l-3.2-0.1c-2.1-0.1-4.2-0.1-6.3-0.2c-4.2-0.1-8.4-0.3-12.6-0.4
		c-4.2-0.1-8.3-0.2-12.5-0.4c-4.3-0.3-8.6-0.6-12.9-0.9c-4.3-0.3-8.5-0.6-12.8-0.9c-2.1-0.1-4.3-0.3-6.4-0.4l-3.2-0.2l-3.1-0.3
		c-8.4-0.9-16.7-1.7-25-2.6c-2.1-0.2-4.1-0.4-6.2-0.7c-2.1-0.2-4.1-0.5-6.2-0.8c-4.1-0.6-8.2-1.2-12.3-1.7
		c-4.1-0.6-8.2-1.1-12.2-1.7c-2-0.3-4.1-0.6-6.1-0.9c-2-0.4-4-0.7-6-1.1c-8-1.4-16.1-2.9-24-4.3c-4-0.7-7.9-1.5-11.9-2.4
		c-3.9-0.8-7.9-1.7-11.8-2.5c-7.8-1.7-15.7-3.3-23.3-5.3c-7.7-1.9-15.4-3.9-23-5.8l-2.9-0.7l-2.8-0.8c-1.9-0.5-3.8-1.1-5.6-1.6
		c-3.8-1.1-7.5-2.2-11.2-3.3c-3.7-1.1-7.5-2.2-11.2-3.3c-1.9-0.5-3.7-1.1-5.5-1.7c-1.8-0.6-3.7-1.2-5.5-1.8
		c-7.3-2.4-14.6-4.8-21.8-7.2c-0.9-0.3-1.8-0.6-2.7-0.9l-2.7-1c-1.8-0.7-3.6-1.3-5.3-2c-3.5-1.3-7.1-2.6-10.6-3.9
		c-3.5-1.3-7-2.6-10.5-3.9l-2.6-1l-2.6-1.1c-1.7-0.7-3.4-1.4-5.2-2.1c-6.9-2.8-13.7-5.6-20.5-8.4c-3.4-1.3-6.7-2.9-10.1-4.4
		c-3.3-1.5-6.6-3-9.9-4.5c-3.3-1.5-6.6-3-9.9-4.5c-1.6-0.7-3.3-1.5-4.9-2.2c-1.6-0.8-3.2-1.6-4.8-2.4c-6.4-3.2-12.8-6.4-19.1-9.5
		c-6.4-3.1-12.5-6.5-18.6-9.8c-6.1-3.3-12.2-6.6-18.3-9.9c-5.9-3.5-11.8-6.9-17.7-10.4c-2.9-1.7-5.8-3.4-8.7-5.1l-2.2-1.3l-2.1-1.3
		c-1.4-0.9-2.8-1.8-4.2-2.7c-11.3-7.2-22.5-14.1-33.1-21.5c-5.3-3.7-10.6-7.3-15.9-10.9c-5.2-3.7-10.2-7.5-15.3-11.2
		c-2.5-1.9-5-3.7-7.5-5.6c-2.5-1.9-5-3.6-7.4-5.6c-4.8-3.8-9.6-7.6-14.4-11.4c-9.6-7.4-18.6-15.3-27.5-22.8
		c-2.2-1.9-4.5-3.8-6.7-5.7c-2.2-1.9-4.3-3.9-6.4-5.8c-4.2-3.9-8.5-7.7-12.6-11.5c-2.1-1.9-4.2-3.8-6.2-5.7c-2-1.9-4-3.9-6-5.8
		c-4-3.9-7.9-7.7-11.7-11.5c-30.8-30.5-56.9-60.5-79.1-88.6c-22.4-28-40.2-54.5-55.3-77.8c-14.9-23.5-26.6-43.9-35.6-60.8
		c-4.4-8.5-8.4-15.9-11.8-22.4c-3.2-6.6-5.8-12.1-7.9-16.5c-4.3-8.9-6.5-13.5-6.5-13.5s2.5,4.4,7.4,13c2.4,4.3,5.4,9.6,9,15.9
		c3.8,6.2,8.1,13.4,13.1,21.5c1.2,2,2.5,4.1,3.8,6.3c1.3,2.1,2.8,4.3,4.2,6.5c2.9,4.4,6,9.1,9.2,14c1.6,2.4,3.2,4.9,4.9,7.5
		c1.7,2.5,3.5,5.1,5.4,7.7c3.7,5.2,7.5,10.6,11.4,16.3c1,1.4,2,2.8,3,4.3c1.1,1.4,2.1,2.8,3.2,4.2c2.1,2.8,4.3,5.7,6.6,8.7
		c2.2,2.9,4.5,5.9,6.8,9c1.2,1.5,2.3,3.1,3.5,4.6c1.2,1.5,2.4,3,3.7,4.6c4.9,6.1,10,12.5,15.3,19c1.3,1.6,2.7,3.2,4.1,4.8
		c1.4,1.6,2.8,3.2,4.2,4.9c2.8,3.3,5.7,6.6,8.5,9.9c23.4,26.5,50.5,54.8,82.1,83.2c4,3.5,8,7.1,12,10.7c2,1.8,4,3.6,6.1,5.4
		c2.1,1.7,4.2,3.5,6.4,5.3c4.2,3.5,8.5,7.1,12.9,10.7c2.2,1.8,4.3,3.6,6.5,5.4c2.2,1.7,4.5,3.5,6.8,5.2c9.1,7,18.2,14.3,27.9,21.1
		c4.8,3.5,9.6,7,14.5,10.5c2.4,1.8,5,3.4,7.5,5.1c2.5,1.7,5,3.4,7.6,5.1c5.1,3.4,10.2,6.9,15.4,10.3c5.3,3.3,10.6,6.6,15.9,10
		c10.6,6.9,21.8,13.1,33,19.6c1.4,0.8,2.8,1.6,4.2,2.4l2.1,1.2l2.2,1.2c2.9,1.5,5.8,3.1,8.7,4.6c5.8,3.1,11.6,6.2,17.5,9.4
		c6,2.9,12,5.9,18.1,8.9c6.1,3,12.1,6.1,18.4,8.8c6.2,2.8,12.5,5.6,18.8,8.5c1.6,0.7,3.2,1.4,4.7,2.1c1.6,0.7,3.2,1.3,4.8,2
		c3.2,1.3,6.5,2.6,9.7,4c3.2,1.3,6.5,2.7,9.7,4c3.3,1.3,6.5,2.7,9.9,3.9c6.6,2.5,13.3,4.9,20.1,7.4c1.7,0.6,3.4,1.2,5,1.9l2.5,0.9
		l2.6,0.8c3.4,1.1,6.9,2.3,10.3,3.4c3.4,1.1,6.9,2.3,10.3,3.4c1.7,0.6,3.5,1.2,5.2,1.7l2.6,0.9c0.9,0.3,1.8,0.5,2.6,0.8
		c7,2.1,14.1,4.1,21.2,6.2c1.8,0.5,3.6,1,5.3,1.6c1.8,0.5,3.6,1.1,5.4,1.5c3.6,0.9,7.2,1.8,10.8,2.8c3.6,0.9,7.3,1.9,10.9,2.8
		c1.8,0.5,3.6,0.9,5.5,1.4l2.7,0.7l2.8,0.6c7.4,1.6,14.8,3.2,22.2,4.9c7.4,1.8,15,3,22.5,4.4c3.8,0.7,7.6,1.4,11.4,2.1
		c3.8,0.7,7.6,1.4,11.5,1.9c7.7,1.1,15.4,2.3,23.2,3.4c1.9,0.3,3.9,0.6,5.8,0.9c2,0.2,3.9,0.4,5.9,0.7c3.9,0.4,7.8,0.9,11.8,1.3
		c3.9,0.4,7.9,0.9,11.8,1.3c2,0.2,3.9,0.5,5.9,0.6c2,0.1,4,0.3,6,0.4c7.9,0.6,15.9,1.2,23.9,1.8l3,0.2l3,0.1c2,0.1,4,0.2,6,0.2
		c4,0.2,8,0.3,12,0.5c4,0.2,8,0.3,12,0.5c4.1,0.1,8.3,0.1,12.5,0.1c4.2,0,8.4,0,12.6,0.1c2.1,0,4.2,0,6.3,0l3.2,0l1.6,0
		c0.6,0,0.3,0,1.1,0c8.2-0.2,16.5-0.4,24.8-0.7c33.1-1.4,66.7-4.4,100.4-9.3c67.4-9.9,135.5-27.1,202.2-52.6
		c4.2-1.6,8.3-3.3,12.5-4.9l6.2-2.5l6.2-2.6c4.1-1.7,8.3-3.5,12.4-5.2c4.1-1.7,8.2-3.7,12.3-5.5c4.1-1.9,8.2-3.6,12.3-5.6
		c4.1-1.9,8.2-3.9,12.2-5.8l6.1-2.9c2-1,4-2,6.1-3.1c4-2.1,8.1-4.1,12.1-6.2l3-1.5l3-1.6l6-3.2c4-2.2,8-4.3,12-6.5
		c4-2.3,7.9-4.5,11.9-6.8l6-3.4c2-1.1,3.9-2.4,5.9-3.5c3.9-2.4,7.9-4.7,11.8-7.1l3-1.8l2.9-1.9l5.8-3.7c3.9-2.5,7.8-4.9,11.7-7.4
		c3.8-2.6,7.7-5.1,11.5-7.7c30.7-20.6,60.3-43.4,88.7-67.9c7.2-6,14.1-12.4,21.1-18.7l2.6-2.4l2.6-2.4l5.1-4.9l5.1-4.9
		c1.7-1.6,3.4-3.2,5.1-4.9c3.4-3.3,6.7-6.6,10.1-10c1.7-1.7,3.4-3.3,5-5l4.9-5.1c3.3-3.4,6.6-6.8,9.9-10.2c3.2-3.5,6.4-7,9.6-10.5
		c25.7-28,49.7-57.8,72.1-89l4.2-5.8l4.1-5.9c2.7-4,5.4-7.9,8.2-11.9c2.6-4,5.3-8.1,7.9-12.1c2.6-4,5.3-8.1,7.8-12.2
		c2.5-4.1,5.1-8.2,7.6-12.3c1.3-2,2.5-4.1,3.7-6.2l3.7-6.3l3.7-6.3l1.8-3.1l1.8-3.2c2.3-4.2,4.7-8.5,7-12.7
		c2.4-4.2,4.6-8.5,6.8-12.8c2.2-4.3,4.5-8.6,6.7-12.9c2.1-4.3,4.3-8.7,6.4-13.1c1.1-2.2,2.2-4.3,3.2-6.5l3.1-6.6
		c2-4.4,4.1-8.8,6.1-13.2c1.9-4.5,3.9-8.9,5.8-13.4l2.9-6.7c1-2.2,1.8-4.5,2.8-6.8c1.8-4.5,3.7-9,5.5-13.5c1.8-4.5,3.5-9.1,5.2-13.7
		l2.6-6.8l1.3-3.4l1.2-3.5c3.2-9.2,6.5-18.4,9.4-27.7c1.5-4.7,3-9.3,4.5-14l4.2-14.1c0.7-2.3,1.4-4.7,2.1-7l1.9-7.1l3.8-14.2
		c9.6-37.9,16.9-76.6,22-115.5c2.3-19.5,4.4-39,5.5-58.7c0.3-4.9,0.7-9.8,0.9-14.7l0.5-14.5l0.3-7.2l0.1-7.6l0.2-15.2l0-1.9
		c0-0.7,0-0.5,0-1.5l0-3.7l-0.1-7.4l-0.1-7.4c0-2.5,0-4.9-0.2-7.4l-0.6-14.7c-0.1-2.5-0.2-4.9-0.3-7.4l-0.5-7.4l-0.9-14.7
		c-0.4-4.9-0.8-9.8-1.3-14.7c-0.8-9.8-2-19.5-3.1-29.3c-0.5-4.9-1.3-9.7-1.9-14.6c-0.7-4.9-1.3-9.7-2.1-14.6l-2.4-14.5l-1.2-7.3
		l-1.4-7.2l-2.7-14.4c-1-4.8-2-9.6-3.1-14.4c-2-9.6-4.4-19.1-6.7-28.6c-1.1-4.8-2.5-9.5-3.7-14.2c-1.3-4.7-2.5-9.5-3.8-14.2
		l-4.2-14.1c-0.7-2.3-1.4-4.7-2.1-7l-2.2-7l-4.5-13.9l-4.8-13.8l-2.4-6.9c-0.8-2.3-1.7-4.6-2.5-6.9l-5.2-13.7
		c-14.1-36.3-30.5-71.6-48.7-105.8c-18.4-34.1-38.8-66.9-60.9-98.3c-2.8-3.9-5.6-7.8-8.4-11.7c-1.4-1.9-2.8-3.9-4.2-5.8l-4.3-5.7
		c-2.9-3.8-5.8-7.6-8.7-11.4c-3-3.7-6-7.5-8.9-11.2l-4.5-5.6c-1.5-1.9-3.1-3.7-4.6-5.5c-3.1-3.7-6.1-7.3-9.2-11
		c-3.1-3.7-6.3-7.2-9.4-10.8l-4.7-5.4l-2.4-2.7l-2.4-2.6c-6.5-7-12.8-14.1-19.4-20.8c-3.3-3.4-6.6-6.8-9.9-10.2
		c-3.4-3.3-6.7-6.7-10.1-10l-5-5l-5.1-4.9c-3.4-3.2-6.9-6.5-10.3-9.7c-3.4-3.2-7-6.3-10.5-9.5c-3.5-3.1-6.9-6.3-10.5-9.4
		c-28.4-24.6-57.8-47.5-88.4-68.4c-30.6-20.8-62.1-39.8-94.2-56.8c-4-2.1-8.1-4.1-12.1-6.2l-6.1-3.1c-2-1-4-2.1-6.1-3
		c-4.1-2-8.2-3.9-12.2-5.8l-6.1-2.9l-6.2-2.8c-4.1-1.8-8.2-3.7-12.3-5.5c-2-0.9-4.1-1.8-6.2-2.7l-6.2-2.6c-4.1-1.7-8.2-3.5-12.4-5.2
		c-4.2-1.6-8.3-3.3-12.5-4.9c-33.3-12.9-66.9-23.9-100.6-32.7c-33.8-8.9-67.6-15.8-101.3-20.9c-2.1-0.3-4.2-0.6-6.3-1
		c-2.1-0.3-4.2-0.7-6.3-0.9c-4.2-0.5-8.4-1.1-12.6-1.6c-8.4-1.2-16.8-1.9-25.1-2.8c-4.2-0.4-8.4-0.9-12.5-1.1
		c-4.2-0.3-8.3-0.6-12.5-1c-2.1-0.2-4.2-0.3-6.2-0.5c-2.1-0.1-4.1-0.2-6.2-0.3c-4.1-0.2-8.2-0.4-12.3-0.6c-2-0.1-4.1-0.2-6.1-0.3
		c-2.1-0.1-4.2-0.1-6.3-0.2c-4.2-0.1-8.4-0.2-12.7-0.3c-2-0.1-4-0.1-6-0.2c-2.1,0-4.1,0-6.2,0c-4.1,0-8.2,0-12.3,0.1
		c-16.3-0.2-32.5,0.8-48.6,1.3c-64.2,3.8-126,13.3-183.9,28.3c-3.6,0.9-7.2,1.8-10.8,2.8c-1.8,0.5-3.6,0.9-5.4,1.4
		c-1.8,0.5-3.6,1-5.3,1.5c-7.1,2.1-14.2,4.1-21.2,6.2c-1.8,0.5-3.5,1-5.3,1.5c-1.7,0.5-3.5,1.1-5.2,1.7c-3.5,1.1-6.9,2.3-10.3,3.4
		c-3.4,1.1-6.9,2.3-10.3,3.4c-1.7,0.6-3.4,1.1-5.1,1.7c-1.7,0.6-3.4,1.2-5.1,1.8c-13.4,5-26.8,9.7-39.7,15.2c-3.2,1.3-6.5,2.6-9.7,4
		c-1.6,0.7-3.2,1.3-4.8,2c-1.6,0.7-3.2,1.3-4.8,2c-6.3,2.8-12.6,5.6-18.8,8.4c-49.9,22.5-95.1,48.6-135.8,75.7
		c-5.1,3.4-10.1,6.8-15.1,10.1c-4.9,3.5-9.7,7-14.5,10.5c-2.4,1.7-4.8,3.4-7.2,5.2c-2.4,1.7-4.8,3.4-7.1,5.2
		c-4.6,3.6-9.2,7.1-13.7,10.6c-4.5,3.5-9.1,6.9-13.4,10.5c-4.3,3.6-8.6,7.1-12.9,10.6c-8.6,6.9-16.6,14.2-24.6,21.2
		c-31.7,28.3-59,56.4-82.5,82.8c-5.8,6.7-11.5,13.1-16.9,19.5c-5.3,6.5-10.4,12.8-15.4,18.9c-5.1,6-9.6,12.2-14.1,18.1
		c-2.2,2.9-4.4,5.8-6.6,8.7c-2.2,2.8-4.3,5.6-6.3,8.4c-16.1,22.3-29.1,41.9-39.2,58c-5,8.1-9.4,15.3-13.2,21.5
		c-3.6,6.3-6.6,11.6-9.1,15.9C1595.7,551.6,1593.2,556,1593.2,556z"/>
</g>
<path class="st0" d="M2235.7,1514.6l170.1-804.2c27.7-90.1,105.2-147.5,192.9-154.4c0.4,0-0.5,0,0,0l249.5,0
	c92.2,2.9,131.9,17,172.4,52.5c31.6,27.7,55.9,62.7,68,106.3c6.8,24.3,11.4,63.8,11.4,93.4c0,44.7-5.5,93.8-16.4,147.2
	c-10.9,53.4-25.1,101.2-42.5,143.5c-17.4,42.2-40.3,77.2-68.9,104.9c-56.6,53.7-145.5,80.3-265,80.3l-208-0.1l-16.7,76
	c0,0-14,70.1-86.6,120.4C2319.2,1533.6,2235.7,1514.6,2235.7,1514.6 M2533.2,1126h151.3c80.7,0,134.9-43.4,162.6-130.2
	c21.8-69.8,32.8-124.6,32.8-164.5c0-39.8-7.7-69.4-23.1-88.6c-15.4-19.2-37.5-39.9-80.3-39.9l-101.6,0c-18.1,0-34.7,9.7-45.1,19.8
	c-9.2,8.9-16.4,29.8-19.4,43.8L2533.2,1126z"/>
<path class="st0" d="M2042.1,1137.6c-17.8,53.6-56.3,89.9-82.9,108.3c-79.3,54.8-162.4,34.6-162.4,34.6l92.6-435.8
	c23.3-109.7,65.4-186.4,126.3-230.3c55-38.9,142.1-58.4,261.1-58.4l144.3,0c0,0-7.3,58-61.9,108.2c-48.6,44.7-64.7,35.6-89.4,37.9
	c-37.4,3.5-78.6,26.7-114.4,60.7c-30.3,28.7-50.8,77.9-63.7,145L2042.1,1137.6z"/>
</svg>
