<?xml version="1.0" encoding="utf-8"?>
<!-- Generator: Adobe Illustrator 21.1.0, SVG Export Plug-In . SVG Version: 6.00 Build 0)  -->
<svg version="1.1" id="Calque_1" xmlns="http://www.w3.org/2000/svg" xmlns:xlink="http://www.w3.org/1999/xlink" x="0px" y="0px"
	 viewBox="0 0 31.5 34.1" style="enable-background:new 0 0 31.5 34.1;" xml:space="preserve">
<style type="text/css">
	.st0{fill:#36B4A7;}
</style>
<path class="st0" d="M30.9,12.9h-4.1c-2.8,0-5,2.2-5,5v4.1c0,0.4,0.2,0.7,0.7,0.7h3.9c2.8,0,5-2.2,5-5v-4.4
	C31.3,13.1,31.1,12.9,30.9,12.9z"/>
<path class="st0" d="M19.7,23.9h-8.3c-0.2,0-0.7,0.2-0.7,0.7v8.7c0,0.4,0.2,0.7,0.7,0.7h3.9c2.8,0,5.2-2.4,5.2-5.2V25
	C20.4,24.3,20.1,23.9,19.7,23.9z"/>
<path class="st0" d="M0.7,12.9h14.5c2.8,0,5,2.2,5,5v4.1c0,0.4-0.4,0.7-0.7,0.7H5c-2.8,0-5-2.2-5-5v-3.9C0,13.3,0.2,12.9,0.7,12.9z"
	/>
<circle class="st0" cx="15.5" cy="5.7" r="5.7"/>
</svg>
